# ProBuilder 4.2.3
# https://unity3d.com/unity/features/worldbuilding/probuilder
# 14.08.2020 6:28:04

mtllib ./HexModel.mtl
o HexModel

g HexModel
v -0.578 0 2.904613E-08
v -0.578 1 2.904613E-08
v -0.289 0 0.5005627
v -0.289 1 0.5005627
v 0.289 0 0.5005627
v 0.289 1 0.5005627
v 0.578 0 -2.148423E-08
v 0.578 1 -2.148423E-08
v 0.289 0 -0.5005627
v 0.289 1 -0.5005627
v -0.2889999 0 -0.5005627
v -0.2889999 1 -0.5005627
v -9.934108E-09 1 2.904613E-08

vt -0.289 0
vt -0.289 1
vt 0.289 0
vt 0.289 1
vt -0.289 0
vt -0.289 1
vt 0.289 0
vt 0.289 1
vt 0.578 2.904613E-08
vt 9.934108E-09 2.904613E-08
vt 0.289 0.5005627
vt -0.289 0.5005627
vt -0.578 -2.148423E-08
vt -0.289 -0.5005627
vt 0.2889999 -0.5005627

vn -0.8660254 0 0.5
vn 1.031222E-07 0 1
vn 0.8660254 0 0.5
vn 0.8660254 0 -0.5
vn 0 0 -1
vn -0.8660254 0 -0.5000001
vn 0 1 0

usemtl HexGrey
f 4/11/7 13/10/7 2/9/7
f 6/12/7 13/10/7 4/11/7
f 8/13/7 13/10/7 6/12/7
f 10/14/7 13/10/7 8/13/7
f 12/15/7 13/10/7 10/14/7
f 2/9/7 13/10/7 12/15/7
f 4/4/1 2/2/1 1/1/1
f 1/1/1 3/3/1 4/4/1
f 6/8/2 4/6/2 3/5/2
f 3/5/2 5/7/2 6/8/2
f 8/4/3 6/6/3 5/5/3
f 5/5/3 7/3/3 8/4/3
f 10/4/4 8/2/4 7/1/4
f 7/1/4 9/3/4 10/4/4
f 12/8/5 10/2/5 9/1/5
f 9/1/5 11/7/5 12/8/5
f 2/4/6 12/6/6 11/5/6
f 11/5/6 1/3/6 2/4/6

